<svg width="150" height="60" viewBox="0 0 78 27" fill="none" xmlns="http://www.w3.org/2000/svg">
                            <path d="M26.816 10.732V12.448L26.06 12.544C25.956 12.464 25.856 12.296 25.76 12.04H24.32V17.608C24.64 17.736 24.86 17.868 24.98 18.004L24.86 19H22.052L21.932 18.004C22.036 17.868 22.256 17.736 22.592 17.608V12.04H21.152C21.056 12.296 20.956 12.464 20.852 12.544L20.096 12.448V10.732H26.816ZM33.7901 13.144C33.7901 13.688 33.6181 14.144 33.2741 14.512C32.9381 14.88 32.5141 15.16 32.0021 15.352C32.4021 15.52 32.6661 15.724 32.7941 15.964L33.6701 17.632C34.0461 17.76 34.3021 17.908 34.4381 18.076L34.3181 19H32.2901L30.9101 16.06C30.7821 15.764 30.6341 15.616 30.4661 15.616H29.6861V17.536C30.2701 17.664 30.6341 17.82 30.7781 18.004L30.6581 19H27.4181L27.2981 18.004C27.4021 17.868 27.6221 17.736 27.9581 17.608V12.124C27.6301 12.004 27.4101 11.868 27.2981 11.716L27.4181 10.72H30.4781C31.5981 10.736 32.4301 10.916 32.9741 11.26C33.5181 11.604 33.7901 12.232 33.7901 13.144ZM30.3941 12.028H29.6861V14.308H30.3701C30.9141 14.308 31.3181 14.228 31.5821 14.068C31.8541 13.9 31.9901 13.604 31.9901 13.18C31.9901 12.756 31.8541 12.46 31.5821 12.292C31.3101 12.116 30.9141 12.028 30.3941 12.028ZM39.1292 10.66L41.5172 17.584C41.8532 17.704 42.0892 17.844 42.2252 18.004L42.1052 19H39.2972L39.1772 18.004C39.2732 17.876 39.4652 17.756 39.7532 17.644L39.4292 16.636H37.0292L36.7292 17.608C37.0092 17.72 37.2172 17.852 37.3532 18.004L37.2332 19H34.4972L34.3772 18.004C34.5212 17.82 34.7892 17.668 35.1812 17.548L37.4852 10.66H39.1292ZM38.1332 12.34C38.1332 12.828 38.0332 13.396 37.8332 14.044L37.3652 15.532H39.0812L38.6252 14.068C38.4412 13.508 38.3372 13 38.3132 12.544L38.3012 12.34H38.1332ZM44.3387 19.06L42.0587 12.124C41.7147 11.996 41.4907 11.86 41.3867 11.716L41.5067 10.72H44.3147L44.4347 11.716C44.3227 11.868 44.1187 11.996 43.8227 12.1L44.8427 15.652C45.0107 16.204 45.1147 16.712 45.1547 17.176L45.1667 17.38H45.3347C45.3427 16.892 45.4427 16.324 45.6347 15.676L46.7027 12.112C46.3987 12.008 46.1867 11.876 46.0667 11.716L46.1867 10.72H48.9227L49.0427 11.716C48.8987 11.892 48.6307 12.044 48.2387 12.172L45.9827 19.06H44.3387ZM55.0173 19H49.4493L49.3293 18.004C49.4333 17.868 49.6533 17.736 49.9893 17.608V12.124C49.6613 12.004 49.4413 11.868 49.3293 11.716L49.4493 10.72H54.9213V12.808L54.0333 12.916C53.8493 12.756 53.7013 12.46 53.5893 12.028H51.7173V14.092H53.3853C53.4813 13.852 53.5813 13.684 53.6853 13.588L54.4413 13.672V15.808L53.6853 15.904C53.5813 15.824 53.4813 15.656 53.3853 15.4H51.7173V17.692H53.6853C53.7893 17.276 53.9373 16.98 54.1293 16.804L55.0173 16.912V19ZM61.4141 19H55.9181L55.7981 18.004C55.9021 17.868 56.1221 17.736 56.4581 17.608V12.124C56.1301 12.004 55.9101 11.868 55.7981 11.716L55.9181 10.72H58.7261L58.8461 11.716C58.7181 11.868 58.4981 12.004 58.1861 12.124V17.692H60.0821C60.1861 17.276 60.3341 16.98 60.5261 16.804L61.4141 16.912V19ZM65.5175 12.028C65.2455 11.956 64.9615 11.92 64.6655 11.92C64.3695 11.92 64.1295 11.996 63.9455 12.148C63.7695 12.292 63.6815 12.5 63.6815 12.772C63.6815 13.036 63.7495 13.244 63.8855 13.396C64.0215 13.548 64.2895 13.68 64.6895 13.792L65.7575 14.104C66.3335 14.272 66.7895 14.536 67.1255 14.896C67.4695 15.248 67.6415 15.768 67.6415 16.456C67.6415 17.272 67.3455 17.916 66.7535 18.388C66.1695 18.86 65.4415 19.096 64.5695 19.096C64.0895 19.096 63.5935 19.036 63.0815 18.916C62.5775 18.788 62.1575 18.612 61.8215 18.388C61.8215 18.34 61.8215 18.248 61.8215 18.112C61.8215 17.976 61.8495 17.744 61.9055 17.416C61.9615 17.088 62.0415 16.82 62.1455 16.612H63.2855C63.4135 16.86 63.4895 17.192 63.5135 17.608C63.7935 17.728 64.1175 17.788 64.4855 17.788C64.8615 17.788 65.1695 17.7 65.4095 17.524C65.6495 17.348 65.7695 17.096 65.7695 16.768C65.7695 16.616 65.7575 16.492 65.7335 16.396C65.7095 16.292 65.6335 16.184 65.5055 16.072C65.3855 15.952 65.2095 15.856 64.9775 15.784L63.7415 15.424C62.4855 15.064 61.8575 14.264 61.8575 13.024C61.8575 12.296 62.1215 11.716 62.6495 11.284C63.1775 10.844 63.8655 10.624 64.7135 10.624C65.5695 10.624 66.4055 10.816 67.2215 11.2C67.2215 11.248 67.2215 11.34 67.2215 11.476C67.2215 11.612 67.1935 11.844 67.1375 12.172C67.0815 12.5 67.0015 12.768 66.8975 12.976H65.7575C65.6215 12.784 65.5415 12.468 65.5175 12.028Z" fill="#E5E5E5" />
                            <line x1="50" y1="7.5" x2="70" y2="7.5" stroke="#FF0303" />
                            <path d="M6.828 4.996C6.688 4.93533 6.478 4.905 6.198 4.905C5.918 4.905 5.69167 5.02633 5.519 5.269C5.34633 5.51167 5.26 5.93633 5.26 6.543C5.26 7.14967 5.34167 7.58133 5.505 7.838C5.673 8.09 5.92033 8.216 6.247 8.216C6.74633 8.216 7.19433 8.14133 7.591 7.992L7.843 8.615C7.34833 8.909 6.76733 9.056 6.1 9.056C5.43267 9.056 4.94967 8.867 4.651 8.489C4.357 8.111 4.21 7.49267 4.21 6.634C4.21 5.77533 4.392 5.14067 4.756 4.73C5.12467 4.31933 5.64033 4.114 6.303 4.114C6.835 4.114 7.34133 4.261 7.822 4.555C7.822 4.583 7.822 4.63667 7.822 4.716C7.822 4.79533 7.80567 4.93067 7.773 5.122C7.74033 5.31333 7.69367 5.46967 7.633 5.591H6.968C6.90267 5.465 6.856 5.26667 6.828 4.996ZM10.1353 9.056C9.47267 9.056 8.97567 8.86467 8.64434 8.482C8.31767 8.09933 8.15434 7.481 8.15434 6.627C8.15434 5.76833 8.334 5.136 8.69334 4.73C9.05734 4.31933 9.573 4.114 10.2403 4.114C10.9123 4.114 11.4117 4.296 11.7383 4.66C12.0697 5.024 12.2353 5.633 12.2353 6.487C12.2353 7.341 12.051 7.98267 11.6823 8.412C11.3137 8.84133 10.798 9.056 10.1353 9.056ZM9.45634 5.269C9.28834 5.51167 9.20434 5.934 9.20434 6.536C9.20434 7.138 9.293 7.57667 9.47034 7.852C9.64767 8.12733 9.89034 8.265 10.1983 8.265C10.511 8.265 10.7537 8.13667 10.9263 7.88C11.099 7.61867 11.1853 7.187 11.1853 6.585C11.1853 5.465 10.8493 4.905 10.1773 4.905C9.86467 4.905 9.62434 5.02633 9.45634 5.269ZM16.4534 5.584C16.4534 5.90133 16.353 6.16733 16.1524 6.382C15.9564 6.59667 15.709 6.76 15.4104 6.872C15.6437 6.97 15.7977 7.089 15.8724 7.229L16.3834 8.202C16.6027 8.27667 16.752 8.363 16.8314 8.461L16.7614 9H15.5784L14.7734 7.285C14.6987 7.11233 14.6124 7.026 14.5144 7.026H14.0594V8.146C14.4 8.22067 14.6124 8.31167 14.6964 8.419L14.6264 9H12.7364L12.6664 8.419C12.727 8.33967 12.8554 8.26267 13.0514 8.188V4.989C12.86 4.919 12.7317 4.83967 12.6664 4.751L12.7364 4.17H14.5214C15.1747 4.17933 15.66 4.28433 15.9774 4.485C16.2947 4.68567 16.4534 5.052 16.4534 5.584ZM14.4724 4.933H14.0594V6.263H14.4584C14.7757 6.263 15.0114 6.21633 15.1654 6.123C15.324 6.025 15.4034 5.85233 15.4034 5.605C15.4034 5.35767 15.324 5.185 15.1654 5.087C15.0067 4.98433 14.7757 4.933 14.4724 4.933ZM20.3799 9H17.1319L17.0619 8.419C17.1226 8.33967 17.2509 8.26267 17.4469 8.188V4.989C17.2556 4.919 17.1272 4.83967 17.0619 4.751L17.1319 4.17H20.3239V5.388L19.8059 5.451C19.6986 5.35767 19.6122 5.185 19.5469 4.933H18.4549V6.137H19.4279C19.4839 5.997 19.5422 5.899 19.6029 5.843L20.0439 5.892V7.138L19.6029 7.194C19.5422 7.14733 19.4839 7.04933 19.4279 6.9H18.4549V8.237H19.6029C19.6636 7.99433 19.7499 7.82167 19.8619 7.719L20.3799 7.782V9Z" fill="#E5E5E5" />
                            <circle cx="14" cy="14" r="3" fill="#FA0707" />
                        </svg>